<svg data-v-1084b650="" xmlns="http://www.w3.org/2000/svg" viewBox="0 0 300 300"><!----> <!----> <rect data-v-1084b650="" fill="#2B1357" x="0" y="0" width="300px" height="300px" class="logo-background-square"></rect> <!----> <g data-v-1084b650="" id="a8b9c8f6-2dc8-b8da-7360-9eef162dc0b4" fill="#DAA8DB" transform="matrix(6.099999999999998,0,0,6.099999999999998,150.70849858522416,117.79200015068055)"><path d="M2.38 9.23L2.38 1.32L3.92 1.32L4.75 2.13L4.75 8.40L3.92 9.23ZM1.64 1.32L1.64 1.41L1.11 1.74L1.11 10.50L4.45 10.50L6.02 8.92L6.02 1.61L4.45 0.04L0.35 0.04L0.35 1.32ZM8.04 0L8.04 8.88L9.55 10.56L11.52 10.56L13.02 8.88L13.02 0L11.75 0L11.75 8.40L10.95 9.28L10.11 9.28L9.31 8.40L9.31 0ZM16.30 4.68L16.30 1.29L19.32 1.29L19.32 0.01C17.63 0.01 16.72 0.01 15.02 0.01L15.02 10.50L19.52 10.50L19.52 9.23L16.30 9.23L16.30 5.95L18.83 5.95L18.83 4.68Z"></path></g> <!----> <g data-v-1084b650="" id="22633040-5e8c-5693-6bac-47558c392f30" stroke="none" fill="#DAA8DB" transform="matrix(0.3976296454300114,0,0,0.3976296454300114,28.667553460156498,90.3555531854983)"><svg xmlns="http://www.w3.org/2000/svg" xmlns:xlink="http://www.w3.org/1999/xlink" version="1.1" x="0px" y="0px" viewBox="0 0 100 100" enable-background="new 0 0 100 100" xml:space="preserve"><path d="M80.5,9.5h-61c-5.52,0-10,4.48-10,10v8.17h81V19.5C90.5,13.98,86.02,9.5,80.5,9.5z M72.58,20h-2.83v-2.83h2.83V20z   M78.42,20h-2.84v-2.83h2.84V20z M83.92,20h-2.84v-2.83h2.84V20z"></path><path d="M9.5,29v51.5c0,5.52,4.48,10,10,10h61c5.52,0,10-4.48,10-10V29H9.5z M23.17,74.33h-4.84V69.5h4.84V74.33z M23.17,61.83  h-4.84V57h4.84V61.83z M23.17,48.33h-4.84V43.5h4.84V48.33z M81.83,74.33H30.75V69.5h51.08V74.33z M81.83,61.83H30.75V57h51.08  V61.83z M81.83,48.33H30.75V43.5h51.08V48.33z"></path></svg></g></svg>