<svg data-v-1084b650="" xmlns="http://www.w3.org/2000/svg" viewBox="0 0 300 300"><!----> <!----> <rect data-v-1084b650="" fill="#2B1357" x="0" y="0" width="300px" height="300px" class="logo-background-square"></rect> <!----> <!----> <g data-v-1084b650="" id="2db0a621-d864-8aee-c222-572d2c2d09a9" fill="#DAA8DB" stroke="none" transform="matrix(1,0,0,1,0,0)"><svg xmlns="http://www.w3.org/2000/svg" xmlns:xlink="http://www.w3.org/1999/xlink" version="1.1" x="0px" y="0px" viewBox="0 0 100 100" enable-background="new 0 0 100 100" xml:space="preserve"><path d="M80.5,9.5h-61c-5.52,0-10,4.48-10,10v8.17h81V19.5C90.5,13.98,86.02,9.5,80.5,9.5z M72.58,20h-2.83v-2.83h2.83V20z   M78.42,20h-2.84v-2.83h2.84V20z M83.92,20h-2.84v-2.83h2.84V20z"></path><path d="M9.5,29v51.5c0,5.52,4.48,10,10,10h61c5.52,0,10-4.48,10-10V29H9.5z M23.17,74.33h-4.84V69.5h4.84V74.33z M23.17,61.83  h-4.84V57h4.84V61.83z M23.17,48.33h-4.84V43.5h4.84V48.33z M81.83,74.33H30.75V69.5h51.08V74.33z M81.83,61.83H30.75V57h51.08  V61.83z M81.83,48.33H30.75V43.5h51.08V48.33z"></path></svg></g></svg>